<svg width="150" height="40" viewBox="0 0 150 40" fill="none" xmlns="http://www.w3.org/2000/svg">
<g clip-path="url(#clip0_0_65)">
<rect width="150" height="40" fill="#00A4E5"/>
<path d="M31.0347 19.7886H34.7163V24.6001C34.1196 24.7948 33.5568 24.9302 33.0278 25.0063C32.5031 25.0868 31.9657 25.127 31.4155 25.127C30.0148 25.127 28.9442 24.7165 28.2036 23.8955C27.4673 23.0703 27.0991 21.8875 27.0991 20.3472C27.0991 18.8491 27.5265 17.6812 28.3813 16.8433C29.2404 16.0054 30.4295 15.5864 31.9487 15.5864C32.9009 15.5864 33.8192 15.7769 34.7036 16.1577L34.0498 17.7319C33.3727 17.3934 32.6681 17.2241 31.936 17.2241C31.0854 17.2241 30.4041 17.5098 29.8921 18.0811C29.38 18.6523 29.124 19.4204 29.124 20.3853C29.124 21.3924 29.3293 22.1626 29.7397 22.6958C30.1545 23.2248 30.7554 23.4893 31.5425 23.4893C31.953 23.4893 32.3698 23.4469 32.793 23.3623V21.4263H31.0347V19.7886ZM42.7764 25H37.4316V15.7197H42.7764V17.332H39.3994V19.3696H42.5415V20.9819H39.3994V23.375H42.7764V25ZM48.7988 25H46.8311V17.3574H44.311V15.7197H51.3188V17.3574H48.7988V25ZM57.124 25V15.7197H59.0918V25H57.124ZM70.1606 25H67.6597L63.6226 17.9795H63.5654C63.6458 19.2194 63.686 20.1038 63.686 20.6328V25H61.9277V15.7197H64.4097L68.4404 22.6704H68.4849C68.4214 21.4644 68.3896 20.6117 68.3896 20.1123V15.7197H70.1606V25ZM80.46 25H78.4922V17.3574H75.9722V15.7197H82.98V17.3574H80.46V25ZM93.3315 20.3472C93.3315 21.8833 92.9507 23.064 92.189 23.8892C91.4272 24.7144 90.3354 25.127 88.9136 25.127C87.4917 25.127 86.3999 24.7144 85.6382 23.8892C84.8765 23.064 84.4956 21.8791 84.4956 20.3345C84.4956 18.7899 84.8765 17.6113 85.6382 16.7988C86.4041 15.9821 87.5002 15.5737 88.9263 15.5737C90.3524 15.5737 91.4421 15.9842 92.1953 16.8052C92.9528 17.6261 93.3315 18.8068 93.3315 20.3472ZM86.5586 20.3472C86.5586 21.384 86.7554 22.1647 87.1489 22.6895C87.5425 23.2142 88.1307 23.4766 88.9136 23.4766C90.4836 23.4766 91.2686 22.4334 91.2686 20.3472C91.2686 18.2567 90.4878 17.2114 88.9263 17.2114C88.1434 17.2114 87.5531 17.4759 87.1553 18.0049C86.7575 18.5296 86.5586 19.3104 86.5586 20.3472ZM103.309 15.7197V21.7246C103.309 22.4102 103.154 23.0111 102.845 23.5273C102.541 24.0436 102.098 24.4393 101.519 24.7144C100.939 24.9894 100.253 25.127 99.4619 25.127C98.2686 25.127 97.3418 24.8223 96.6816 24.2129C96.0215 23.5993 95.6914 22.7614 95.6914 21.6992V15.7197H97.6528V21.4009C97.6528 22.116 97.7967 22.6408 98.0845 22.9751C98.3722 23.3094 98.8483 23.4766 99.5127 23.4766C100.156 23.4766 100.621 23.3094 100.909 22.9751C101.201 22.6366 101.347 22.1076 101.347 21.3882V15.7197H103.309ZM110.023 17.2241C109.282 17.2241 108.709 17.5034 108.303 18.062C107.896 18.6164 107.693 19.3908 107.693 20.3853C107.693 22.4546 108.47 23.4893 110.023 23.4893C110.675 23.4893 111.464 23.3263 112.391 23.0005V24.6509C111.629 24.9683 110.778 25.127 109.839 25.127C108.489 25.127 107.456 24.7186 106.741 23.9019C106.026 23.0809 105.668 21.9045 105.668 20.3726C105.668 19.4077 105.844 18.5635 106.195 17.8398C106.547 17.112 107.05 16.5555 107.706 16.1704C108.366 15.7811 109.139 15.5864 110.023 15.5864C110.924 15.5864 111.83 15.8044 112.74 16.2402L112.105 17.8398C111.758 17.6748 111.409 17.5309 111.058 17.4082C110.706 17.2855 110.361 17.2241 110.023 17.2241ZM122.476 25H120.514V20.9946H116.839V25H114.871V15.7197H116.839V19.3569H120.514V15.7197H122.476V25Z" fill="white"/>
</g>
<defs>
<clipPath id="clip0_0_65">
<rect width="150" height="40" fill="white"/>
</clipPath>
</defs>
</svg>
