<svg width="150" height="40" viewBox="0 0 150 40" fill="none" xmlns="http://www.w3.org/2000/svg">
<g clip-path="url(#clip0_0_73)">
<rect width="150" height="40" fill="#00A4E5"/>
<path d="M55.1719 22.4229C55.1719 23.2607 54.8693 23.9209 54.2642 24.4033C53.6632 24.8857 52.8254 25.127 51.7505 25.127C50.7603 25.127 49.8843 24.9408 49.1226 24.5684V22.7402C49.7489 23.0195 50.2778 23.2163 50.7095 23.3306C51.1453 23.4448 51.5431 23.502 51.9028 23.502C52.3345 23.502 52.6646 23.4194 52.8931 23.2544C53.1258 23.0894 53.2422 22.8439 53.2422 22.5181C53.2422 22.3361 53.1914 22.1753 53.0898 22.0356C52.9883 21.8918 52.8381 21.7542 52.6392 21.623C52.4445 21.4919 52.0446 21.2824 51.4395 20.9946C50.8724 20.728 50.4471 20.472 50.1636 20.2266C49.88 19.9811 49.6536 19.6955 49.4844 19.3696C49.3151 19.0438 49.2305 18.6629 49.2305 18.2271C49.2305 17.4061 49.5076 16.7607 50.062 16.291C50.6206 15.8213 51.3908 15.5864 52.3726 15.5864C52.855 15.5864 53.3141 15.6436 53.75 15.7578C54.1901 15.8721 54.6493 16.0329 55.1274 16.2402L54.4927 17.77C53.9976 17.5669 53.5871 17.4251 53.2612 17.3447C52.9396 17.2643 52.6222 17.2241 52.3091 17.2241C51.9367 17.2241 51.651 17.3109 51.4521 17.4844C51.2533 17.6579 51.1538 17.8843 51.1538 18.1636C51.1538 18.3371 51.194 18.4894 51.2744 18.6206C51.3548 18.7476 51.4818 18.8724 51.6553 18.9951C51.833 19.1136 52.2498 19.3294 52.9058 19.6426C53.7733 20.0573 54.3678 20.4741 54.6895 20.8931C55.0111 21.3078 55.1719 21.8177 55.1719 22.4229ZM57.354 25V15.7197H59.3218V25H57.354ZM65.6807 19.7886H69.3623V24.6001C68.7656 24.7948 68.2028 24.9302 67.6738 25.0063C67.1491 25.0868 66.6117 25.127 66.0615 25.127C64.6608 25.127 63.5902 24.7165 62.8496 23.8955C62.1133 23.0703 61.7451 21.8875 61.7451 20.3472C61.7451 18.8491 62.1725 17.6812 63.0273 16.8433C63.8864 16.0054 65.0755 15.5864 66.5947 15.5864C67.5469 15.5864 68.4652 15.7769 69.3496 16.1577L68.6958 17.7319C68.0187 17.3934 67.3141 17.2241 66.582 17.2241C65.7314 17.2241 65.0501 17.5098 64.5381 18.0811C64.026 18.6523 63.77 19.4204 63.77 20.3853C63.77 21.3924 63.9753 22.1626 64.3857 22.6958C64.8005 23.2248 65.4014 23.4893 66.1885 23.4893C66.599 23.4893 67.0158 23.4469 67.439 23.3623V21.4263H65.6807V19.7886ZM80.3105 25H77.8096L73.7725 17.9795H73.7153C73.7957 19.2194 73.8359 20.1038 73.8359 20.6328V25H72.0776V15.7197H74.5596L78.5903 22.6704H78.6348C78.5713 21.4644 78.5396 20.6117 78.5396 20.1123V15.7197H80.3105V25ZM90.7065 15.7197V21.7246C90.7065 22.4102 90.5521 23.0111 90.2432 23.5273C89.9385 24.0436 89.4963 24.4393 88.9165 24.7144C88.3368 24.9894 87.6512 25.127 86.8599 25.127C85.6665 25.127 84.7397 24.8223 84.0796 24.2129C83.4194 23.5993 83.0894 22.7614 83.0894 21.6992V15.7197H85.0508V21.4009C85.0508 22.116 85.1947 22.6408 85.4824 22.9751C85.7702 23.3094 86.2463 23.4766 86.9106 23.4766C87.5539 23.4766 88.0194 23.3094 88.3071 22.9751C88.5991 22.6366 88.7451 22.1076 88.7451 21.3882V15.7197H90.7065ZM95.4468 20.0869H96.0942C96.6994 20.0869 97.1522 19.9684 97.4526 19.7314C97.7531 19.4902 97.9033 19.1411 97.9033 18.6841C97.9033 18.2228 97.7764 17.8822 97.5225 17.6621C97.2728 17.4421 96.8792 17.332 96.3418 17.332H95.4468V20.0869ZM99.8901 18.6143C99.8901 19.613 99.577 20.3768 98.9507 20.9058C98.3286 21.4347 97.4421 21.6992 96.291 21.6992H95.4468V25H93.479V15.7197H96.4434C97.569 15.7197 98.4238 15.9631 99.0078 16.4497C99.596 16.9321 99.8901 17.6536 99.8901 18.6143Z" fill="white"/>
</g>
<defs>
<clipPath id="clip0_0_73">
<rect width="150" height="40" fill="white"/>
</clipPath>
</defs>
</svg>
